<svg width="130" height="73" viewBox="0 0 130 73" fill="none" xmlns="http://www.w3.org/2000/svg">
<rect width="130" height="73" fill="white"/>
<path d="M76.7874 16.2182C76.7676 16.2182 76.7477 16.2182 72.653 16.3587C68.5582 16.4992 60.3891 16.7801 55.0636 17.0685C49.7381 17.3568 47.5036 17.6439 45.0377 17.792C39.9491 18.0976 36.4777 17.9651 34.9519 18.1006C33.3926 18.2391 29.9118 19.8732 25.5993 21.9204C22.7442 23.2757 21.9852 24.9076 20.8313 27.004C18.8633 30.5799 18.7729 32.2198 18.3184 34.208C17.5275 37.6676 18.2543 41.4872 19.548 44.6925C21.122 48.5925 22.3134 49.8813 23.1844 50.6958C24.2795 51.7199 25.9985 52.4629 29.3257 54.2533C31.1813 55.2518 33.8645 55.4632 38.5905 55.7782C41.9967 56.0053 47.4677 56.0365 56.1253 56.3051C64.7829 56.5738 76.466 56.9941 82.6954 57.1796C89.3446 57.3776 90.3041 57.1582 91.329 57.015C94.3867 56.5876 98.2784 56.0423 100.428 55.1111C103.352 53.8438 105.34 51.2614 106.603 50.2042C107.612 49.3588 108.319 47.789 108.887 46.0273C109.852 43.0334 111.386 37.9322 111.867 35.338C112.332 32.8255 111.598 28.8356 110.622 26.5131C109.576 24.0245 107.79 22.4884 106.781 21.7764C105.31 20.7386 102.747 19.9547 99.6034 19.0171C97.9571 18.5261 96.1364 18.2569 93.6375 18.0181C88.0118 17.4806 84.3809 17.4385 83.5339 17.2657C81.1482 16.779 78.8265 16.2537 77.678 15.9158C77.4109 15.8409 77.1518 15.7923 76.8406 15.7672C76.5293 15.7422 76.1738 15.7422 75.8074 15.7422" stroke="#1E1E1E" stroke-width="2" stroke-linecap="round" stroke-linejoin="round"/>
</svg>
