<svg width="130" height="73" viewBox="0 0 130 73" fill="none" xmlns="http://www.w3.org/2000/svg">
<rect width="130" height="73" fill="white"/>
<path d="M54.9867 16.9128C54.9768 16.9128 54.9669 16.9128 52.0405 16.942C49.1141 16.9713 43.2715 17.0298 37.6997 17.44C32.128 17.8502 27.0041 18.6103 23.9537 19.1287C20.0611 19.7901 18.4125 20.6085 16.7247 21.7054C14.7976 22.9578 13.5196 24.8813 12.5524 26.4636C11.7137 27.8359 11.0702 30.8217 10.262 35.3897C9.4209 40.1434 9.71834 43.0853 9.91035 44.0755C10.5713 47.484 12.5173 50.1445 13.8284 51.675C14.3872 52.3274 15.9828 53.0041 20.2932 54.3814C23.3825 55.3684 28.4384 56.4882 36.305 57.285C44.1717 58.0817 54.7306 58.4058 62.779 58.3171C70.8274 58.2284 76.0454 57.7171 81.3986 57.0771C86.7518 56.4371 92.0821 55.6838 96.0867 54.9C100.091 54.1162 102.609 53.3246 105.074 52.4491C109.91 50.7318 113.143 49.1032 114.829 47.8871C117.858 45.7024 118.867 43.7613 119.631 42.1307C120.922 39.3756 120.085 34.1726 119.317 31.1616C118.976 29.8244 118.25 28.4725 117.127 26.4605C114.076 20.9916 111.524 19.0811 108.111 16.9816C105.844 15.5875 102.44 15.1429 96.7225 14.788C92.9195 14.552 87.2621 14.7206 81.8968 14.8155C76.5316 14.9104 71.624 15.0589 68.326 15.1303C63.489 15.235 60.4645 15.5207 57.8 16.1157C56.5729 16.3708 55.5996 16.531 54.9442 16.6421C54.2888 16.7532 53.9808 16.8103 52.9748 16.8962" stroke="#1E1E1E" stroke-width="2" stroke-linecap="round" stroke-linejoin="round"/>
</svg>
