<svg width="130" height="73" viewBox="0 0 130 73" fill="none" xmlns="http://www.w3.org/2000/svg">
<rect width="130" height="73" fill="white"/>
<path d="M67.4355 17.7327C67.3971 17.7327 64.6152 17.6838 58.6774 17.3591C55.4945 17.1851 51.9963 16.5824 48.0994 16.3049C44.2025 16.0275 40.0204 15.9888 37.2847 16.1032C31.7428 16.335 29.9583 17.9868 26.8338 20.5645C25.7522 21.4568 25.1133 22.5433 24.4123 23.6584C23.822 24.5974 22.4968 28.1258 20.6415 33.0988C19.0926 37.2504 19.8218 39.6392 20.8827 42.4012C21.8628 44.9528 24.085 47.4894 25.9523 49.5174C26.9351 50.5848 28.4301 51.4773 31.7137 52.9054C33.7855 53.8065 36.9012 54.5084 44.0398 55.3011C51.1784 56.0938 62.302 56.8135 71.9448 56.938C81.5877 57.0625 89.4129 56.5701 93.7467 56.2491C99.7157 55.8071 102.94 53.75 105.112 52.2878C106.601 51.2852 108.657 46.7875 109.644 44.043C111.019 40.2225 109.751 36.3623 108.791 33.5944C107.522 29.9392 105.856 27.4901 104.433 26.1588C101.425 23.3424 98.6552 21.5077 96.9232 20.7114C95.7541 20.1738 93.901 19.5844 91.0583 19.0213C88.2155 18.4582 84.415 17.9951 80.0195 17.7425C75.6239 17.49 70.7485 17.4619 65.7253 17.433" stroke="#1E1E1E" stroke-width="2" stroke-linecap="round" stroke-linejoin="round"/>
</svg>
